<svg width="128" height="128" viewBox="0 0 128 128" xmlns="http://www.w3.org/2000/svg">
  <!-- Background circle -->
  <circle cx="64" cy="64" r="60" fill="#0052cc" stroke="#0041a3" stroke-width="2"/>
  
  <!-- Clipboard icon -->
  <g transform="translate(32, 28)">
    <!-- Clipboard background -->
    <rect x="8" y="8" width="48" height="64" rx="6" ry="6" fill="white" stroke="#ccc" stroke-width="1"/>
    
    <!-- Clipboard clip -->
    <rect x="18" y="0" width="28" height="16" rx="4" ry="4" fill="#666" stroke="#555" stroke-width="1"/>
    <rect x="22" y="4" width="20" height="8" rx="2" ry="2" fill="white"/>
    
    <!-- Document lines -->
    <line x1="16" y1="24" x2="48" y2="24" stroke="#0052cc" stroke-width="2" stroke-linecap="round"/>
    <line x1="16" y1="32" x2="44" y2="32" stroke="#0052cc" stroke-width="2" stroke-linecap="round"/>
    <line x1="16" y1="40" x2="40" y2="40" stroke="#0052cc" stroke-width="2" stroke-linecap="round"/>
    <line x1="16" y1="48" x2="42" y2="48" stroke="#0052cc" stroke-width="2" stroke-linecap="round"/>
    
    <!-- Checkboxes -->
    <rect x="16" y="20" width="8" height="8" rx="1" ry="1" fill="none" stroke="#0052cc" stroke-width="1"/>
    <rect x="16" y="28" width="8" height="8" rx="1" ry="1" fill="none" stroke="#0052cc" stroke-width="1"/>
    <rect x="16" y="36" width="8" height="8" rx="1" ry="1" fill="none" stroke="#0052cc" stroke-width="1"/>
    <rect x="16" y="44" width="8" height="8" rx="1" ry="1" fill="none" stroke="#0052cc" stroke-width="1"/>
  </g>
  
  <!-- Arrow indicating copy -->
  <g transform="translate(85, 85)">
    <circle cx="0" cy="0" r="16" fill="#36b37e" stroke="#00875a" stroke-width="2"/>
    <path d="M-8,-2 L-2,-2 L-2,-6 L6,0 L-2,6 L-2,2 L-8,2 Z" fill="white"/>
  </g>
</svg>